<svg id="Layer_1" data-name="Layer 1" xmlns="http://www.w3.org/2000/svg" viewBox="0 0 320 360"><defs><style>.cls-1{fill:#804dee;}</style></defs><title>logo1</title><path class="cls-1" d="M26.43,225.36L30,229.84,28.21,224c-0.45-2.69-3.58.45-1.79,1.34m4-2.69c1.34,2.24,2.69,4.47,2.69,6.71,0,3.13,2.69,4.47,4.92,5.37-3.13-3.58-4.92-13.42-7.61-12.08M202.29,32.94c7.61,0,14.77-.9,22.82.89,19.69,4.92,36.25,14.77,47.43,28.64l31.32,50.12c1.34,12.53,4,26.4,3.58,41.62,3.13,0,2.69-4.47,6.26-5.37-3.58,8.95-5.37,20.14-6.26,33.11-2.24-7.16,0-17.9.45-23.72-3.13,4.92-4.92,1.34-4.92-.9,0.45-3.58-1.34-3.13-2.69-4.47-4.92-4.47-8.05-9.4-11.63-17,2.24-5.82,2.69-14.32-4.47-18.79a14.35,14.35,0,0,1-6.26-7.16c-1.79-4.92-4.92-10.74-4-18.35,0.45-2.24-6.71,4.92-10.74,1.79-17.45-12.08-34.9-26-55.94-37.59-11.19,0-19.24-4-23.27-8.95-3.58-4.47-.9-10.29,4.47-10.74,3.13,0,6.71-.9,9.4.9,0.45-1.79,2.24-4,4.47-4M158,22.65l0.9,0.45c4.47,0.9,6.71,7.16,11.63,4.92,0,3.13.45,6.26-.45,8.5-1.34,3.58-5.37,3.58-8.5,3.58-30-1.79-47.43,10.74-65.78,21.48C90.86,64.72,85.49,67,81.47,71c-19.24,17.9-40.27,34.46-45.2,67.57l-4,36.69c-0.45,4-4.92,8.05-4,13l3.13,21.93c-3.13-3.13-4.92.9-4,2.69,0.45,1.34,2.24,5.82,4.92,1.79,3.58,6.71,7.16,19.69,12.08,25.51,15.21,17.9,34.9,34,51,50.12,4-.9,7.16-0.9,8.05-3.58,1.34,2.69-1.34,5.37-3.58,5.82,7.16,4.47,15.21,8.5,26,9.4a208.17,208.17,0,0,1,38.93,6.27A91,91,0,0,1,183.94,305c2.24,0,3.58-3.58,6.26-4.47l0.45-4.47c2.69,4,2.24-1.34.45-4,3.13,2.69,4,4.92,5.37,6.71,0-1.34,3.58-6.26,3.58-.45l0.89-5.82c1.34-.9,1.79,4.92,3.13.89s4-.9,6.71-2.24c-0.9,1.79-.45,5.37,2.68,3.13l3.58-3.13c2.24,5.37,5.82,3.13,7.61,2.24,19.69-12.53,39.38-27.3,58.17-42.06l-0.45,5.82,2.24-7.16c2.24,2.24,4,.45,4.92-0.89a40.6,40.6,0,0,1,12.08-13c-7.16,19.24-15.66,34.46-26.4,47l-4.47,5.37c0,3.13-.9,7.16-4.47,7.61-1.79.45-5.37-.9-8.05,1.79-1.34,1.79,3.13,5.37-.45,2.69-3.13-2.24-6.26,0-9.85.9-2.69.9,1.79,3.58,2.69,5.37s1.79,3.58,1.34,5.82L247,307.25c-5.82,3.13-9.4,8.95-14.32,13.42-2.24,1.79-1.34,4.92-1.34,7.61-3.13,0-6.71-.9-8.5.9-1.34,1.79-.9,4.47-0.9,7.16-4.47-.45-4.92-7.16-8.95-5.82-4,.9-8.5,1.34-12.08,3.58,2.69,5.37-4.47,2.24-3.58,3.13-6.71-4-12.53-7.16-19.69-4.47-15.21-4.92-34-2.69-47.88-.89,0-2.24.45-4.47-.45-4.92a2.4,2.4,0,0,1-3.13,1.34c-8.5-5.82-17-9.4-26-14.32-8.05.9-15.66-3.13-17.9-5.37-6.26-5.82-13.42-2.69-19.24-4-12.53-3.13-17-16.11-18.35-25.06-0.9-4.47-4.47-6.26-5.82-5.82C33.14,254.9,24.19,237.89,17,220.44c-1.79-4.47-1.34-8.95-1.34-13.87,2.24,0.9,4.47.45,4-2.68-2.24-14.77-7.61-26-13.42-36.69C9.42,152,9.87,134.08,17,120.65,23.29,108.57,34.93,102.3,43,92c2.69-3.58,2.69-8.5,5.37-11.63C57.3,71.43,66.25,62,76.1,54c4.47-3.58,9.84,0,16.56-1.34,2.24-8.05,11.19-15.21,19.69-13,3.58,0.9,10.74-8.5,13-9.4,3.58-1.34,1.79,3.58,1.79,6.71,8.5-6.71,20.14-10.29,30.88-14.32"/><path class="cls-1" d="M100.32,90.52l2.85,1.07v0.36a24.1,24.1,0,0,0-4.63,4.63q0-1.07-1.43-1.07l-0.36-.36V94.79Q100.32,93,100.32,90.52Zm31,8.56,0.36,0.36h0.36l1.43-.36h0.36q0,1.25,4.63,1.78l1.43,1.07-0.36.36v1.43h2.85L142,101.92q1.78,0,1.78-1.07V100.5h-1.07V99.79h6.06q4.19,0,5.7-.71,1.42,1.69,2.5,15.33l0.71,0.71L157,116.54l0.71,1.78-1.07,1.78,5,26.38v10.7q0,6.77,1.43,6.77a4.34,4.34,0,0,0,1.43-2.85v-2.5a38.16,38.16,0,0,1,3.92-17.47l1.43-7.49q-0.71,0-.71-1.07a63.8,63.8,0,0,0,3.21-20q0.71-12.48,2.14-12.48l51.34-.71,0.36,0.36v4.28l-2.5,35.29v3.92q-2.14,1.87-2.14,3.21h1.07l0.36-.36h0.36l0.36,0.36V149q0,5-2.14,16.76h0.71q0,1.07.71,1.07h4.28v0.71q0,0.62-5,1.78l-0.36,5.35L223,187.49l-2.14,14.26,1.07,1.07v0.36L220.82,205l0.71,4.28v0.36l-0.71,2.85,1.43,5v0.71l-1.43,26,0.36,2.85-0.36.36-0.36-.36H219.4l-21.75.71q-1.43.53-1.43,1.07l0.36,2.85h-0.36q-1.07,0-3.92-3.21-3.21,0-3.21-2.14,0-5.7-2.85-15v-5q0-2.58,2.14-9.63l0.71-9.63-0.71-29.95,0.71-12.48h-0.36l-1.43,1.78,0.36,1.78v1.43q0,1.43-2.85,7.49l-5,44.56q-2.5,1.34-2.5,3.21v2.14l1.43,5.35a73.72,73.72,0,0,0-1.78,15v1.07q0,1.52-25,3.21a11.8,11.8,0,0,1-.71-4.63v-4.63l-0.36-.36v-0.36a5.18,5.18,0,0,0,3.57-2.5v-0.36q-1.6,0-5-2.85,0-12-5.35-38.15,0-7.93-6.06-35.65V161.1l1.78-1.43h-2.14l-5,.71v0.36a3.42,3.42,0,0,1,1.07,2.5h0.36l3.57-1.43-0.36,5.35v2.5l1.43,31.73-0.71,4.28,0.36,32.44-0.36,7.13a9.27,9.27,0,0,1-3.92,1.43V247q3.92,0,3.92.71v3.21l-0.36.36v0.36l-5-.36-29.23.71-0.36-.36,0.36-16.76V211.73l0.71-33.16-0.71-2.14v-1.07l-0.71-13.19,1.43-17.47-0.71-35.29,0.36-8.2,2.14-.71,2.14,0.36,11.76,0.36Zm-27.45,59.54V159l0.36,1.07h0.36V159l-0.36-.36h-0.36Zm4.63,10-0.71,1.07,0.71,0.71h0.71V169.3Zm3.21-47.06,0.36,0.36,0.36-.36h1.07l1.78,1.78,0.36-.36h1.07V124h0.36l1.07-1.07a3,3,0,0,0-2.85-2.14h-2.85Zm0,34.22v0.71l0.71,0.71,0.36-.36v-0.36Zm17.83,2.85v0.71l0.36,0.36V160l1.07-.36-1.07-1.07h-0.36Zm1.78,6.42-1.07,2.85,2.85,1.07,0.36-.36v-0.36q-1.43-.44-1.43-3.21h-0.71Zm2.14,50.27q0,2.5-2.85,2.5v0.36q2.14,2.05,2.14,3.21h0.36l1.43-4.63V216l-0.71-.71h-0.36ZM131,149v1.07l0.36,0.36h0.36v-0.36L131.34,149H131Zm16.4,18.54-2.5-1.78-1.07.36a2.33,2.33,0,0,0,2.14,1.78q0,3.12,4.28,7.49v0.71q-1.07,0-1.07.71v0.71h0.36q2.23,0,5-2.85l-1.43-3.21h0.36l3.57,0.71,0.71-1.07a2.45,2.45,0,0,1-1.43-2.5v-0.71l1.78-1.78q-0.8,0-1.78-2.85-7.13,1.52-7.13,3.57Zm0.36,100.54h0.36v0.71l-0.71.71H147v-0.71Zm5-8.56,0.71,0.71-0.36.36H152v-0.36Zm7.84-110.16v1.07h0.71l-0.36-1.07h-0.36Zm6.77,92h0.36l0.71-.71h-0.36Zm10.34-86.63L177,156.83l0.36,0.36v0.36q0,0.8-2.14,3.21h3.57l1.78,0.36v-0.71l4.28,1.07q2.5,0,2.5-.71a7.21,7.21,0,0,1-1.07-3.57l-0.36.36h-2.5a3,3,0,0,1-2.14-2.85h-3.57Zm4.63,65.24h2.85l0.71,0.71-1.43,1.07h-2.14l-0.71-.71v-0.36ZM183,148.27v1.43h0.36l0.71-.71v-0.36Zm6.42,101.61,1.07,1.07-0.71.71h-0.36a2.45,2.45,0,0,1-2.5-1.43l0.36-.36h2.14Zm-1.78-88.77v1.78h1.43V161.1h-1.43Zm2.5,46.35,1.43,1.43v-1.07Zm0.36-57a2,2,0,0,0,2.14,1.78l1.07-.36a7.55,7.55,0,0,1,1.43,3.92l3.21,0.36v-0.36a14.87,14.87,0,0,1-3.92-6.06l-2.14-.36h-0.71Zm2.14-25.31,0.36,0.36h1.07V125.1L193.73,124Zm0.71,21v0.71q1.25,2.5,1.78,2.5l1.07-.36v-0.71Zm1.78,118.72h0.71l1.07,1.07-0.71.71h-0.71l-1.07-1.07ZM198,221l1.07,1.07v-0.36l-0.71-.71H198Zm1.43-1.78,0.71,0.71,0.71-1.43h-0.71Zm0,23.17v0.71l0.71,0.71V243.1Zm0,13.9h0.71l0.71,0.71-0.36.36-1.07-.36v-0.71Zm3.57-97a2.71,2.71,0,0,1-2.85,2.14l-0.36.36v0.36l1.78,1.07,1.07-.71h2.5v-0.36Zm-3.21,15.33,0.36,1.07,1.43-1.07V174.3l-0.71-.71H200.5Q199.79,173.58,199.79,174.65Zm16.4,53.83h1.43q3.21-.62,3.21-1.43l-1.43-.36Q216.19,226.7,216.19,228.49Zm1.07-39.57a1.91,1.91,0,0,0,1.43,2.14v-0.71q-0.53-1.42-1.07-1.43h-0.36ZM217.62,241V242l0.71,0.71V241h-0.71Z"/></svg>